<svg width="51" height="51" viewBox="0 0 51 51" fill="none" xmlns="http://www.w3.org/2000/svg">
<circle cx="25.4999" cy="25.5004" r="24.8256" fill="#EBADA2"/>
<path d="M10.8174 26.2101C10.3682 26.2101 10.0017 26.0502 9.71801 25.7306C9.43429 25.4119 9.3279 25.0515 9.39883 24.6496C9.84805 22.3089 11.1012 20.565 13.1581 19.4178C15.2151 18.2716 17.4612 17.6984 19.8965 17.6984C22.3318 17.6984 24.5779 18.2716 26.6349 19.4178C28.6918 20.565 29.9449 22.3089 30.3942 24.6496C30.4651 25.0515 30.3587 25.4119 30.075 25.7306C29.7913 26.0502 29.4248 26.2101 28.9756 26.2101H10.8174ZM33.3732 37.5589V26.2101C33.3732 23.4911 32.5401 21.1802 30.8737 19.2774C29.2063 17.3736 26.8595 16.0434 23.8331 15.2868L23.6558 13.62C23.6085 13.1944 23.7211 12.8222 23.9934 12.5035C24.2649 12.1839 24.6134 12.024 25.0389 12.024H30.536V7.76821C30.536 7.36628 30.6717 7.02912 30.9432 6.75675C31.2155 6.48532 31.5527 6.34961 31.9546 6.34961C32.3566 6.34961 32.6937 6.48532 32.9661 6.75675C33.2375 7.02912 33.3732 7.36628 33.3732 7.76821V12.024H38.9058C39.3314 12.024 39.686 12.1777 39.9698 12.4851C40.2535 12.7924 40.3717 13.1589 40.3244 13.5845L38.1256 35.5019C38.0546 36.0694 37.8007 36.5541 37.3638 36.956C36.9259 37.3579 36.3996 37.5589 35.7849 37.5589H33.3732ZM10.6046 31.8845C10.2027 31.8845 9.86602 31.7483 9.59459 31.4759C9.32222 31.2045 9.18604 30.8678 9.18604 30.4659C9.18604 30.064 9.32222 29.7273 9.59459 29.4558C9.86602 29.1835 10.2027 29.0473 10.6046 29.0473H29.0465C29.4484 29.0473 29.7856 29.1835 30.058 29.4558C30.3294 29.7273 30.4651 30.064 30.4651 30.4659C30.4651 30.8678 30.3294 31.2045 30.058 31.4759C29.7856 31.7483 29.4484 31.8845 29.0465 31.8845H10.6046ZM10.6046 37.5589C10.2027 37.5589 9.86602 37.4227 9.59459 37.1504C9.32222 36.8789 9.18604 36.5422 9.18604 36.1403C9.18604 35.7384 9.32222 35.4017 9.59459 35.1303C9.86602 34.8579 10.2027 34.7217 10.6046 34.7217H29.0465C29.4484 34.7217 29.7856 34.8579 30.058 35.1303C30.3294 35.4017 30.4651 35.7384 30.4651 36.1403C30.4651 36.5422 30.3294 36.8789 30.058 37.1504C29.7856 37.4227 29.4484 37.5589 29.0465 37.5589H10.6046Z" fill="white"/>
</svg>
